<?xml version="1.0" encoding="utf-8"?>
<!-- Generator: Adobe Illustrator 16.0.0, SVG Export Plug-In . SVG Version: 6.00 Build 0)  -->
<!DOCTYPE svg PUBLIC "-//W3C//DTD SVG 1.1//EN" "http://www.w3.org/Graphics/SVG/1.1/DTD/svg11.dtd">
<svg version="1.1" xmlns="http://www.w3.org/2000/svg" xmlns:xlink="http://www.w3.org/1999/xlink" x="0px" y="0px" width="209.5px"
	 height="196.5px" viewBox="0 0 209.5 196.5" enable-background="new 0 0 209.5 196.5" xml:space="preserve">
<g id="SAUSAGE_ROLL">
	<g id="XMLID_126_">
		<g id="XMLID_187_">
			<g id="XMLID_193_">
				<circle id="XMLID_196_" fill="#F4EBDE" cx="103.226" cy="98.431" r="96.067"/>
			</g>
			<g id="XMLID_189_">
				<circle id="XMLID_192_" fill="#B5ACA0" cx="103.226" cy="98.431" r="60.127"/>
			</g>
		</g>
		<g id="XMLID_128_">
			<g id="XMLID_180_">
				<path id="XMLID_181_" fill="#C17E3A" d="M152.372,12.968c-8.681,1.068-16.16,6.294-23.095,11.792
					c-6.936,5.498-13.013,12.055-20.24,17.163c-11.535,8.152-25.586,12.32-36.741,20.985c-5.537,4.301-10.213,9.602-15.545,14.154
					c-10.207,8.716-22.568,14.494-33.457,22.341c-10.889,7.847-20.77,18.805-22.2,32.151c-1.511,14.102,6.673,27.371,15.758,38.262
					c5.44,6.523,11.64,12.879,19.631,15.759c8.108,2.922,17.576,1.762,24.74-3.031c5.614-3.757,9.735-9.485,15.515-12.982
					c5.219-3.158,11.459-4.291,16.713-7.392c7.946-4.689,12.794-13.336,20.34-18.645c4.45-3.13,9.655-4.971,14.521-7.405
					c7.169-3.584,13.665-8.509,19.052-14.444c3.084-3.398,5.814-7.129,9.173-10.256c13.58-12.641,36.235-14.494,45.813-30.383
					c2.503-4.152,3.828-8.932,4.408-13.745c1.763-14.642-3.541-29.974-13.975-40.396C182.351,16.474,167.012,11.188,152.372,12.968"
					/>
			</g>
			<g id="XMLID_173_">
				<path id="XMLID_175_" fill="#88481F" d="M47.818,138.313c-7.994-10.431-19.638-15.336-27.985-12.459l-0.004-0.006
					c-0.002,0.003-0.003,0.006-0.005,0.009c-0.003,0.001-0.006,0.001-0.01,0.002l0.004,0.006
					c-4.948,7.313-3.238,19.831,4.757,30.261c7.994,10.431,19.637,15.336,27.985,12.459l0.004,0.006
					c0.002-0.003,0.003-0.006,0.005-0.009c0.003-0.001,0.006-0.001,0.01-0.002l-0.005-0.006
					C57.522,161.262,55.812,148.744,47.818,138.313z"/>
			</g>
			<g id="XMLID_166_">
				<path id="XMLID_170_" fill="#88481F" d="M145.099,33.513c24.496,2.538,39.26,20.099,36.358,41.772
					C171.018,59.898,158.898,45.974,145.099,33.513z"/>
			</g>
			<g id="XMLID_158_">
				<path id="XMLID_164_" fill="#88481F" d="M112.527,58.126c23.956,1.757,38.631,19.366,36.358,41.772
					C138.446,84.511,126.327,70.587,112.527,58.126z"/>
			</g>
			<g id="XMLID_153_">
				<path id="XMLID_156_" fill="#88481F" d="M81.509,79.237c24.638,1.405,39.083,19.241,36.358,41.772
					C107.428,105.622,95.309,91.698,81.509,79.237z"/>
			</g>
			<g id="XMLID_140_">
				<path id="XMLID_151_" fill="#88481F" d="M47.275,101.622c24.718,1.303,39.153,19.153,36.358,41.771
					C73.195,128.007,61.075,114.083,47.275,101.622z"/>
			</g>
		</g>
	</g>
</g>
<g id="GRASS_EDGING">
</g>
</svg>
